<svg width="205" height="179" viewBox="0 0 205 179" fill="none" xmlns="http://www.w3.org/2000/svg">
<path d="M88.0555 112.875L89.8061 94.3428C89.9049 93.3025 89.2738 91.4581 88.832 90.5853C87.342 87.6374 81.7114 87.4645 78.0784 88.1479L70.4831 89.578C60.7585 91.4087 52.0245 92.5752 43.4441 87.1846C41.6496 86.0565 39.6492 85.524 37.7175 84.6512L25.2627 79.0217L11.6389 73.7162C9.72088 72.9697 8.12664 71.6385 6.1894 70.9496C4.53205 70.3594 3.70884 68.913 2.59754 67.6614C1.31062 66.2149 -0.220511 64.7685 0.0264455 62.5398C0.224011 60.7475 1.37101 59.2324 2.75671 58.1345C5.52262 54.5581 8.77694 51.775 12.9258 49.9552C17.2009 46.4228 22.0495 44.1803 27.4743 43.1072L33.3601 41.6113C37.5748 40.5408 41.5261 39.2563 45.5543 37.6095C48.9431 36.2234 52.2715 35.2188 55.7673 34.0853L76.2345 27.4568C80.5507 26.0597 84.8642 25.2226 89.2793 24.3086L100.217 22.0497L116.519 18.5694L128.482 15.767L137.655 13.1815L147.465 10.6509L163.27 7.23368C170.822 4.62345 178.384 2.97936 186.298 1.81011L198.3 0.0397814C199.935 -0.201754 201.727 0.687544 202.706 1.86777C204.441 3.95925 205.146 6.53103 204.345 9.15773L202.111 16.4998L198.593 25.0524L193.358 37.3295L189.022 46.1346L184.283 55.3733L182.448 58.7575L177.467 70.2057L175.78 74.2898L171.834 82.428L167.427 92.298L160.153 106.653L156.932 112.776L151.619 123.977L141.121 144.11L137.93 149.995C135.817 153.892 134.039 157.823 131.682 161.597L125.159 172.038C123.554 174.607 121.551 176.358 118.78 177.513C116.582 178.43 114.269 178.748 112.123 177.145L109.187 174.192C107.815 172.814 106.791 171.442 106.048 169.622L100.412 155.838L97.3932 148.4L94.1196 140.74L89.1915 129.184C88.4424 127.428 87.3393 125.408 87.449 123.472L88.0582 112.875H88.0555Z" fill="black"/>
</svg>
